<?xml version="1.0" encoding="utf-8"?><svg xmlns="http://www.w3.org/2000/svg" xmlns:xlink="http://www.w3.org/1999/xlink"><symbol viewBox="0 0 90 90" id="icon-cuisine"><path d="M80.881 60.013l-7.359 3.288-63.064-11.62-5.704-5.696a1.638 1.638 0 1 0-2.315 2.321l6.766 6.756c5.188 8.409 16.254 15.442 29.924 17.962 13.671 2.518 26.517-.11 34.361-6.118l8.73-3.9a1.637 1.637 0 0 0 .826-2.165 1.638 1.638 0 0 0-2.165-.828z"/><path d="M59.953 56.658c1.363-1.364 6.338-8.725 6.338-10.564 0-1.841-1.295-4.022.068-5.386 1.02-1.02.502-1.493.938-2.428-.271-.158-.553-.38-.84-.667s-.51-.57-.668-.84c-.934.436-1.408-.084-2.43.936-1.361 1.363-3.543.068-5.383.068-1.842 0-9.201 4.977-10.564 6.34-1.365 1.362-.996 2.087 4.729 7.811 5.726 5.727 6.447 6.093 7.812 4.73zm1.852-9.01a.866.866 0 0 1 .07 1.225l-4.068 4.567a.865.865 0 0 1-1.262.036.865.865 0 0 1-.035-1.189l4.07-4.567a.867.867 0 0 1 1.225-.072zm-2.692-2.693c.34.339.34.889 0 1.227l-4.318 4.319a.866.866 0 0 1-1.227 0 .87.87 0 0 1 0-1.227l4.318-4.32a.868.868 0 0 1 1.227.001zm-8.521 2.57a.865.865 0 0 1 .037-1.262l4.566-4.07a.869.869 0 1 1 1.155 1.295l-4.566 4.071a.87.87 0 0 1-1.192-.034zM87.557 16.512a1.659 1.659 0 0 0-2.346 0l-19.102 19.1c-.648.649 1.699 2.997 2.348 2.348l19.1-19.101a1.66 1.66 0 0 0 0-2.347zm-.702 1.928l-1.594 1.593a.87.87 0 0 1-1.227 0 .87.87 0 0 1 0-1.227l1.594-1.593a.867.867 0 1 1 1.227 1.227zM36.576 50.084c2.33.221 4.794-1.662 5.79-4.594.998-2.933.192-5.927-1.79-7.173.808 1.854.911 4.243.108 6.601-.801 2.357-2.337 4.189-4.108 5.166zM22.036 49.674c2.933.996 5.926.19 7.173-1.791-1.855.809-4.243.91-6.601.109-2.358-.802-4.189-2.339-5.168-4.11-.219 2.332 1.663 4.795 4.596 5.792zM32.833 44.208c-1.013-2.319-1.139-5.306-.137-8.256 1.002-2.948 2.924-5.239 5.14-6.462-2.916-.275-5.996 2.08-7.243 5.748-1.248 3.668-.24 7.413 2.24 8.97z"/></symbol></svg>