<?xml version="1.0" encoding="utf-8"?>
<!-- Generator: Adobe Illustrator 18.1.1, SVG Export Plug-In . SVG Version: 6.00 Build 0)  -->
<svg version="1.1" id="Layer_1" xmlns="http://www.w3.org/2000/svg" xmlns:xlink="http://www.w3.org/1999/xlink" x="0px" y="0px"
	 viewBox="0 0 577 110" enable-background="new 0 0 577 110" xml:space="preserve">
<path fill="#2C2473" d="M102.3,56.5c-1,0-2,0.4-2.8,1.1c-0.8,0.7-1.2,1.5-1.3,2.6c0,0.5,0,1,0.2,1.5c0.1,0.5,0.4,0.9,0.7,1.3
	c0.7,0.8,1.6,1.4,2.6,1.5c0.2,0,0.4,0.1,0.6,0.1c0.9,0,1.7-0.3,2.3-0.8c0.4-0.3,0.8-0.7,1-1.2c0.3-0.5,0.4-1,0.5-1.6
	c0.1-1.1-0.2-2.2-1-3C104.4,57,103.4,56.5,102.3,56.5"/>
<path fill="#2C2473" d="M101,67.7c-1-0.3-2.1-0.1-3,0.3c-0.4,0.2-0.8,0.5-1.1,0.9c-0.4,0.4-0.6,0.8-0.8,1.3c-0.3,1-0.3,1.9,0.1,2.9
	c0.4,1,1.2,1.7,2.1,2.1c0.5,0.2,1,0.3,1.5,0.3s1-0.1,1.5-0.3c1-0.5,1.8-1.3,2.1-2.4c0.2-0.6,0.3-1.1,0.2-1.7c0-0.5-0.2-1.1-0.4-1.5
	C102.8,68.6,102,67.9,101,67.7"/>
<path fill="#2C2473" d="M96.8,78.1c-0.9-0.5-1.9-0.7-3-0.4c-1,0.2-1.9,0.8-2.4,1.6c-0.6,0.9-0.8,1.8-0.6,2.8c0.2,1,0.7,1.9,1.5,2.6
	c0.7,0.5,1.5,0.8,2.3,0.8c0.2,0,0.4,0,0.6-0.1c1.1-0.2,2.1-0.8,2.7-1.8c0.6-1,0.9-2.1,0.6-3.1C98.4,79.5,97.7,78.6,96.8,78.1"/>
<path fill="#2C2473" d="M90.2,87.2c-0.7-0.7-1.7-1.1-2.9-1.1c-1,0-1.9,0.3-2.6,1c-0.7,0.6-1.2,1.5-1.3,2.6c-0.1,1,0.2,2.1,0.8,2.9
	c0.7,0.9,1.6,1.4,2.7,1.5c0.1,0,0.2,0,0.3,0c0.9,0,1.9-0.4,2.7-1.1c0.8-0.8,1.3-1.8,1.3-2.9C91.4,88.9,91,87.9,90.2,87.2"/>
<path fill="#2C2473" d="M79.2,92.6c-1-0.3-2-0.2-2.9,0.2c-0.8,0.4-1.5,1.2-1.9,2.2c-0.3,1-0.3,2,0.1,3c0.4,1,1.2,1.7,2.2,2.1
	c0.4,0.1,0.8,0.2,1.3,0.2c0.6,0,1.3-0.2,1.9-0.5c1-0.5,1.7-1.4,2-2.4c0.3-1,0.1-2.1-0.4-3C81,93.5,80.2,92.9,79.2,92.6"/>
<path fill="#2C2473" d="M69.5,96.8c-0.4-0.3-0.9-0.4-1.4-0.5c-0.5-0.1-0.9-0.1-1.5,0c-0.9,0.2-1.8,0.8-2.4,1.6
	c-0.6,0.9-0.8,1.9-0.7,2.9c0.2,1.1,0.7,2,1.6,2.6c0.6,0.4,1.4,0.7,2.2,0.7c0.3,0,0.6,0,0.9-0.1c0.6-0.1,1.1-0.4,1.5-0.7
	c0.4-0.3,0.8-0.7,1.1-1.2c0.5-0.9,0.7-2,0.3-3.1C71.1,98.2,70.4,97.4,69.5,96.8"/>
<path fill="#2C2473" d="M56.4,104.7L56.4,104.7L56.4,104.7L56.4,104.7z M56.5,97.4l-0.2,0c-0.9,0-1.8,0.4-2.5,1
	c-0.8,0.7-1.3,1.6-1.4,2.7c-0.1,1.1,0.2,2.1,0.9,2.9c0.7,0.8,1.7,1.3,2.9,1.3l0.1,0c1,0,2.1-0.4,2.8-1.2c0.7-0.7,1.1-1.8,1.1-2.9
	c-0.1-1-0.5-2-1.2-2.7C58.4,97.8,57.5,97.4,56.5,97.4"/>
<path fill="#2C2473" d="M46.3,95.8c-0.9-0.3-1.9-0.2-2.9,0.3c-0.9,0.5-1.6,1.3-2,2.2c-0.4,1-0.3,2.1,0.2,3c0.5,1,1.4,1.7,2.5,2
	c0.4,0.1,0.7,0.2,1.1,0.2c0.7,0,1.4-0.2,2-0.5c0.9-0.5,1.6-1.4,1.8-2.5c0.2-1,0-2-0.5-2.9C48.1,96.7,47.3,96.1,46.3,95.8"/>
<path fill="#2C2473" d="M36.9,91.8c-0.4-0.2-0.9-0.4-1.4-0.5c-0.5-0.1-1,0-1.5,0.1c-1,0.2-1.9,0.8-2.5,1.7c-0.6,0.9-0.8,2-0.6,3
	c0.1,0.5,0.3,1,0.7,1.4c0.3,0.4,0.7,0.8,1.2,1.1c0.6,0.4,1.3,0.6,2.1,0.6c0.4,0,0.7-0.1,1.1-0.2c1-0.3,1.9-1,2.3-2
	c0.4-0.9,0.5-2,0.2-3C38.4,93.1,37.8,92.3,36.9,91.8"/>
<path fill="#2C2473" d="M26.1,91.8L26.1,91.8L26.1,91.8L26.1,91.8z M28.8,85.6c-1.6-1.5-4-1.3-5.5-0.1c-0.8,0.7-1.3,1.7-1.3,2.8
	c0,1.1,0.4,2.2,1.2,2.9c0.4,0.4,0.9,0.7,1.4,0.9c0.4,0.2,0.9,0.3,1.4,0.3l0.1,0c1.1,0,2.1-0.5,2.7-1.3c0.7-0.8,1-1.8,1-2.8
	c0-0.5-0.1-0.9-0.3-1.4C29.4,86.3,29.1,85.9,28.8,85.6"/>
<path fill="#2C2473" d="M22.4,77.5c-0.5-0.8-1.3-1.5-2.3-1.7c-1-0.3-2.1-0.2-3,0.3c-1,0.5-1.7,1.3-2,2.4c-0.3,1-0.1,2.2,0.5,3.2
	c0.6,1,1.6,1.7,2.6,1.9c0.3,0.1,0.5,0.1,0.8,0.1c0.8,0,1.5-0.2,2.2-0.7c0.8-0.6,1.4-1.5,1.6-2.5C23.1,79.3,22.9,78.3,22.4,77.5"/>
<path fill="#2C2473" d="M18,71c0.5-0.9,0.6-2,0.3-2.8c-0.2-0.9-0.9-1.7-1.8-2.3c-0.9-0.5-1.9-0.7-2.9-0.5c-1.1,0.2-1.9,0.9-2.5,1.8
	c-0.5,0.9-0.7,2-0.4,3.2c0.3,1.1,1.1,2,2,2.5c0.5,0.3,1.1,0.4,1.7,0.4c0.5,0,0.9-0.1,1.4-0.3C16.8,72.6,17.6,71.9,18,71"/>
<path fill="#2C2473" d="M13,62.1c1-0.1,2-0.6,2.6-1.4c0.7-0.8,1-1.8,1-2.7c0-1-0.4-1.9-1.2-2.6c-0.7-0.7-1.7-1.2-2.7-1.2l-0.2,0
	c-1,0-2,0.4-2.7,1.1c-0.7,0.8-1.1,1.8-1.1,3c0.1,1.1,0.6,2.2,1.4,2.9c0.7,0.6,1.6,0.9,2.5,0.9C12.7,62.1,12.9,62.1,13,62.1"/>
<path fill="#2C2473" d="M13,50.9c0.2,0,0.4,0,0.6,0h0c0.8,0,1.7-0.3,2.3-0.7c0.9-0.6,1.4-1.4,1.6-2.3c0.2-0.9,0.1-1.9-0.5-2.8
	c-0.5-0.9-1.4-1.5-2.4-1.8c-1-0.3-2.1-0.2-3,0.4c-0.9,0.5-1.6,1.5-1.8,2.6c-0.2,1.1,0,2.3,0.6,3.1C11,50.2,12,50.7,13,50.9"/>
<path fill="#2C2473" d="M15.8,40c0.5,0.2,1,0.3,1.5,0.3c0.5,0,1-0.1,1.4-0.3c1-0.3,1.7-1,2.2-1.9c0.4-0.8,0.5-1.8,0.2-2.9
	c-0.3-1-0.9-1.8-1.8-2.4c-0.9-0.6-2-0.7-3-0.4c-1,0.3-1.9,1-2.4,2.1c-0.5,1-0.6,2.1-0.2,3.2C14.1,38.8,14.8,39.6,15.8,40"/>
<path fill="#2C2473" d="M21.3,30.1c0.7,0.5,1.6,0.8,2.5,0.8c0.1,0,0.2,0,0.4,0c1-0.1,1.9-0.5,2.6-1.3c0.3-0.4,0.6-0.8,0.7-1.3
	c0.2-0.5,0.2-0.9,0.2-1.4c0-1-0.5-2-1.2-2.8c-0.7-0.7-1.7-1.1-2.7-1.1l-0.2,0c-0.5,0-1,0.1-1.6,0.4c-0.5,0.2-0.9,0.6-1.3,1
	c-0.7,0.8-1.1,1.9-1,3C19.8,28.5,20.4,29.5,21.3,30.1"/>
<path fill="#2C2473" d="M31.5,23.4c0.2,0,0.4,0,0.6,0c0.3,0,0.6,0,0.8-0.1c0.5-0.1,1-0.3,1.4-0.6c0.8-0.6,1.4-1.4,1.6-2.4
	c0.2-1,0-2.1-0.5-2.9c-0.5-0.9-1.4-1.6-2.5-1.8c-1.1-0.2-2.2,0-3.1,0.7c-0.5,0.3-0.9,0.7-1.2,1.2c-0.3,0.5-0.5,1-0.5,1.5
	c-0.2,1.1,0.1,2.1,0.8,2.9C29.6,22.7,30.5,23.3,31.5,23.4"/>
<path fill="#2C2473" d="M43.5,18.1c1-0.4,1.7-1,2.1-1.9c0.5-1,0.6-2,0.3-3c-0.3-1.1-1-1.9-2-2.4c-1-0.5-2.2-0.5-3.2-0.1
	c-1.1,0.4-1.9,1.2-2.3,2.2c-0.4,1-0.4,2.1,0,3.1c0.4,0.9,1.2,1.7,2.2,2.1c0.5,0.2,1.1,0.3,1.6,0.3C42.6,18.3,43.1,18.3,43.5,18.1"/>
<path fill="#2C2473" d="M53.4,15.8c2-0.2,3.6-2,3.6-4.2c0-1.1-0.5-2.1-1.3-2.8c-0.9-0.7-2-1.1-3-0.9c-1.2,0.1-2.2,0.7-2.8,1.5
	c-0.7,0.9-0.9,1.9-0.7,3c0.2,1,0.7,1.9,1.6,2.6c0.7,0.5,1.5,0.8,2.4,0.8C53.2,15.9,53.3,15.9,53.4,15.8"/>
<path fill="#2C2473" d="M64.2,16.1c0.8,0,1.6-0.2,2.3-0.7c0.9-0.6,1.4-1.5,1.7-2.5c0.2-1.1,0-2.2-0.6-3c-0.7-0.9-1.7-1.5-2.7-1.7
	c-1.2-0.2-2.3,0.1-3.1,0.8c-0.8,0.7-1.4,1.6-1.4,2.7c-0.1,1,0.2,2,0.9,2.9c0.7,0.8,1.5,1.3,2.5,1.5C63.9,16.1,64,16.1,64.2,16.1"/>
<path fill="#2C2473" d="M73.5,18.9c0.5,0.2,1,0.3,1.5,0.3c0.5,0,0.9-0.1,1.4-0.3c1-0.4,1.8-1.1,2.2-2c0.5-1,0.6-2,0.2-3.1
	c-0.4-1-1.2-1.8-2.2-2.3c-1.1-0.4-2.3-0.4-3.2,0c-1,0.4-1.7,1.2-2.1,2.3c-0.3,1-0.3,2,0.1,3C72,17.8,72.7,18.6,73.5,18.9"/>
<path fill="#2C2473" d="M82.4,24c0.6,0.5,1.4,0.8,2.4,0.8c0.1,0,0.3,0,0.4,0c1-0.1,2-0.6,2.7-1.4c0.7-0.8,1.1-1.8,1-2.9
	c-0.1-1-0.6-2-1.6-2.8c-0.9-0.7-2-1-3.1-0.8c-1.1,0.2-2,0.8-2.6,1.7c-0.6,0.9-0.8,1.9-0.6,2.9C81.1,22.6,81.6,23.5,82.4,24"/>
<path fill="#2C2473" d="M90.8,32.2c0.5,0.2,0.9,0.4,1.4,0.5c0.2,0,0.4,0,0.6,0c0.8,0,1.6-0.2,2.3-0.7c0.9-0.6,1.5-1.5,1.6-2.6
	c0.1-0.5,0-1.1-0.1-1.6c-0.2-0.5-0.4-1-0.7-1.5c-0.3-0.5-0.8-0.8-1.3-1.1c-0.5-0.3-1-0.4-1.5-0.5c-1.1-0.1-2.1,0.3-2.9,1
	c-1.6,1.5-1.8,3.8-0.5,5.4C90,31.7,90.3,32,90.8,32.2"/>
<path fill="#2C2473" d="M94.9,37.2c-0.3,0.9-0.3,1.9,0.1,2.9c0.4,0.9,1.1,1.6,2.1,2c0.5,0.2,1.1,0.3,1.6,0.3c0.5,0,0.9-0.1,1.4-0.2
	c1-0.4,1.8-1.1,2.2-2.1c0.2-0.5,0.3-1,0.3-1.5c0-0.5-0.1-1.1-0.4-1.6c-0.4-1-1.3-1.8-2.3-2.2c-1-0.4-2.1-0.3-3,0.2
	C95.9,35.4,95.2,36.2,94.9,37.2"/>
<path fill="#2C2473" d="M100.9,45.4c-1,0.2-1.9,0.9-2.5,1.7c-0.3,0.4-0.5,0.9-0.6,1.3c-0.1,0.5-0.1,1-0.1,1.5c0.2,1,0.7,1.8,1.5,2.4
	c0.7,0.6,1.6,0.9,2.5,0.9c0.1,0,0.2,0,0.4,0c1.1-0.1,2-0.6,2.7-1.5c0.7-0.9,0.9-2,0.7-3.1c-0.1-0.6-0.3-1.1-0.6-1.6
	c-0.3-0.5-0.7-0.8-1.1-1.1C103.1,45.3,102,45.1,100.9,45.4"/>
<path fill="#2C2473" d="M374.3,60.4c-1-0.1-2.1,0.2-2.9,0.8c-0.8,0.6-1.3,1.4-1.5,2.4c-0.1,0.5-0.1,1,0,1.5c0.1,0.5,0.3,0.9,0.6,1.3
	c0.6,0.9,1.4,1.5,2.4,1.7c0.3,0.1,0.6,0.1,1,0.1c0.7,0,1.4-0.2,2.1-0.6c0.4-0.3,0.8-0.7,1.1-1.1c0.3-0.4,0.5-1,0.6-1.5
	c0.2-1.1,0-2.2-0.7-3.1C376.3,61,375.4,60.5,374.3,60.4"/>
<path fill="#2C2473" d="M371.9,71.4c-1-0.3-2.1-0.3-3,0.1c-0.5,0.2-0.9,0.5-1.2,0.8c-0.4,0.4-0.7,0.8-0.9,1.2
	c-0.4,0.9-0.4,1.9-0.1,2.9c0.4,1,1,1.8,1.9,2.3c0.6,0.3,1.2,0.5,1.8,0.5c0.4,0,0.8-0.1,1.2-0.2c1.1-0.4,1.9-1.2,2.3-2.2
	c0.2-0.5,0.4-1.1,0.4-1.6c0-0.5-0.1-1.1-0.3-1.5C373.7,72.5,373,71.7,371.9,71.4"/>
<path fill="#2C2473" d="M366.9,81.4c-0.8-0.6-1.9-0.8-2.9-0.7c-1,0.2-1.9,0.7-2.5,1.4c-0.6,0.8-0.9,1.8-0.8,2.8
	c0.1,1.1,0.5,2,1.3,2.7c0.7,0.7,1.6,1,2.6,1c0.1,0,0.2,0,0.3,0c1.1-0.1,2.1-0.7,2.8-1.5c0.7-0.9,1-2,0.9-3.1
	C368.4,82.9,367.8,82,366.9,81.4"/>
<path fill="#2C2473" d="M356.9,88.5c-1-0.1-2,0.1-2.8,0.7c-0.8,0.5-1.3,1.4-1.5,2.5c-0.2,1,0,2.1,0.6,2.9c0.6,0.9,1.5,1.5,2.5,1.7
	c0.2,0,0.4,0.1,0.6,0.1c0.8,0,1.7-0.3,2.5-0.8c0.9-0.7,1.5-1.7,1.6-2.7c0.1-1.1-0.2-2.1-0.9-2.9C358.8,89.1,357.9,88.6,356.9,88.5"
	/>
<path fill="#2C2473" d="M348.1,94.3c-0.9-0.4-1.9-0.4-2.9,0c-0.9,0.3-1.6,1-2.1,2c-0.4,0.9-0.5,2-0.2,3c0.3,1,1.1,1.8,2,2.3
	c0.5,0.2,1,0.3,1.6,0.3c0.5,0,1.1-0.1,1.6-0.3c1-0.4,1.8-1.2,2.3-2.3c0.4-1,0.3-2.1-0.2-3.1C349.8,95.4,349,94.7,348.1,94.3"/>
<path fill="#2C2473" d="M338.1,97.7c-0.4-0.3-0.9-0.5-1.3-0.6c-0.5-0.1-0.9-0.1-1.5-0.1c-0.9,0.1-1.8,0.6-2.5,1.4
	c-0.6,0.8-1,1.8-0.9,2.9c0.1,1.1,0.6,2,1.4,2.7c0.7,0.6,1.6,0.9,2.5,0.9c0.2,0,0.4,0,0.6,0c0.6-0.1,1.1-0.3,1.6-0.6
	c0.5-0.3,0.9-0.6,1.2-1.1c0.6-0.8,0.8-1.9,0.6-3C339.5,99.2,338.9,98.3,338.1,97.7"/>
<path fill="#2C2473" d="M325.1,97.1c-0.9-0.1-1.9,0.1-2.8,0.8c-0.8,0.6-1.4,1.5-1.6,2.5c-0.2,1.1,0,2.1,0.7,3
	c0.6,0.9,1.6,1.4,2.8,1.6c0.2,0,0.3,0,0.5,0c0.9,0,1.8-0.3,2.6-0.9c0.8-0.7,1.3-1.7,1.3-2.8c0-1-0.3-2-1-2.8
	C326.9,97.7,326.1,97.2,325.1,97.1"/>
<path fill="#2C2473" d="M315.1,94.7c-0.9-0.3-1.9-0.3-2.9,0.1c-1,0.4-1.7,1.1-2.2,2.1c-0.5,1-0.5,2.1-0.1,3c0.4,1,1.2,1.8,2.3,2.2
	c0.5,0.2,0.9,0.3,1.5,0.3c0.6,0,1.2-0.1,1.7-0.4c1-0.4,1.7-1.3,2-2.3c0.3-1,0.2-2-0.2-3C316.8,95.7,316.1,95.1,315.1,94.7"/>
<path fill="#2C2473" d="M306.1,89.8c-0.4-0.3-0.8-0.5-1.3-0.6c-0.5-0.1-1-0.1-1.5-0.1c-1,0.2-2,0.7-2.6,1.5c-0.7,0.8-1,1.9-0.8,2.9
	c0.1,0.5,0.3,1,0.5,1.5c0.3,0.4,0.7,0.9,1.1,1.2c0.7,0.5,1.5,0.8,2.4,0.8c0.3,0,0.5,0,0.8-0.1c1-0.2,1.9-0.8,2.5-1.8
	c0.5-0.9,0.7-1.9,0.5-3C307.4,91.3,306.9,90.4,306.1,89.8"/>
<path fill="#2C2473" d="M298.5,82.9c-0.7-0.8-1.6-1.2-2.6-1.3c-1-0.1-2.1,0.2-2.9,0.8c-0.9,0.6-1.5,1.6-1.5,2.7
	c-0.1,1.1,0.3,2.2,1,3c0.4,0.4,0.8,0.8,1.3,1c0.5,0.2,1,0.4,1.5,0.4l0.2,0c1,0,1.9-0.4,2.7-1.1c0.7-0.7,1.2-1.7,1.2-2.7
	c0-0.5,0-0.9-0.2-1.4C299.1,83.7,298.8,83.3,298.5,82.9"/>
<path fill="#2C2473" d="M293.1,77.2c0.3-1,0.2-2-0.2-2.8c-0.4-0.9-1.2-1.6-2.1-1.9c-1-0.4-2-0.4-3,0c-1,0.4-1.8,1.2-2.2,2.2
	c-0.4,1-0.3,2.2,0.2,3.2c0.5,1,1.4,1.8,2.4,2.1c0.4,0.1,0.7,0.2,1.1,0.2c0.7,0,1.3-0.2,1.9-0.5C292.1,79,292.8,78.2,293.1,77.2"/>
<path fill="#2C2473" d="M286.7,69.3c1-0.3,1.8-0.9,2.4-1.8c0.6-0.9,0.8-1.9,0.5-2.8c-0.2-0.9-0.7-1.8-1.6-2.4
	c-0.8-0.6-1.9-0.9-2.9-0.7c-1.1,0.1-2,0.7-2.6,1.6c-0.6,0.9-0.8,2-0.6,3.1c0.2,1.1,0.9,2.1,1.8,2.6c0.6,0.4,1.3,0.6,2,0.6
	C286,69.4,286.3,69.4,286.7,69.3"/>
<path fill="#2C2473" d="M284.8,57.6L284.8,57.6L284.8,57.6L284.8,57.6z M284.8,58.2l0.1,0c1,0,2-0.4,2.7-1.2
	c0.8-0.7,1.2-1.7,1.2-2.6c0.1-1-0.3-1.9-0.9-2.7c-0.7-0.8-1.6-1.3-2.6-1.4c-1.1-0.1-2.1,0.2-3,0.9c-0.8,0.7-1.3,1.7-1.4,2.9
	c0,1.1,0.4,2.2,1.1,3C282.7,57.8,283.7,58.2,284.8,58.2"/>
<path fill="#2C2473" d="M285.8,47c0.3,0.1,0.6,0.1,0.9,0.1c0.7,0,1.4-0.2,2-0.5c0.9-0.5,1.6-1.3,1.8-2.2c0.3-0.9,0.2-1.9-0.2-2.9
	c-0.4-0.9-1.2-1.7-2.2-2c-1-0.4-2.1-0.4-3.1,0.1c-0.9,0.5-1.7,1.3-2.1,2.5c-0.3,1.1-0.2,2.2,0.3,3.2C283.9,46.1,284.8,46.7,285.8,47
	"/>
<path fill="#2C2473" d="M289.6,36.4c0.6,0.3,1.2,0.5,1.9,0.5c0.4,0,0.7,0,1.1-0.1c1-0.2,1.8-0.8,2.3-1.7c0.5-0.8,0.7-1.8,0.5-2.8
	c-0.2-1-0.8-1.9-1.6-2.5c-0.9-0.6-2-0.9-3-0.7c-1,0.2-2,0.8-2.6,1.8c-0.6,0.9-0.8,2.1-0.5,3.1C287.9,35,288.6,35.9,289.6,36.4"/>
<path fill="#2C2473" d="M298.6,27.5L298.6,27.5L298.6,27.5L298.6,27.5z M298.6,28.1L298.6,28.1c1,0,1.9-0.4,2.7-1.1
	c0.4-0.3,0.6-0.8,0.8-1.2c0.2-0.4,0.3-0.9,0.3-1.4c0-1-0.3-2-0.9-2.8c-0.7-0.8-1.7-1.3-2.7-1.4l-0.2,0c-0.5,0-0.9,0.1-1.4,0.3
	c-0.5,0.2-1,0.5-1.4,0.9c-0.8,0.7-1.3,1.8-1.3,2.9c0,1.1,0.5,2.1,1.3,2.8C296.6,27.7,297.6,28.1,298.6,28.1"/>
<path fill="#2C2473" d="M311.3,18.6c0.3-1,0.2-2.1-0.2-3c-0.5-1-1.3-1.7-2.3-2c-1.1-0.3-2.2-0.2-3.2,0.4c-0.5,0.3-0.9,0.6-1.3,1.1
	c-0.3,0.4-0.5,0.9-0.7,1.4c-0.3,1-0.1,2.1,0.5,3c0.6,0.9,1.4,1.5,2.5,1.7c0.3,0.1,0.6,0.1,0.9,0.1c0.2,0,0.3,0,0.5,0
	c0.5-0.1,1-0.2,1.4-0.5C310.4,20.4,311,19.6,311.3,18.6"/>
<path fill="#2C2473" d="M321.8,12.3c-0.2-1.1-0.8-2-1.7-2.5c-1-0.6-2.1-0.7-3.2-0.4c-1.1,0.3-2,1-2.5,2c-0.5,0.9-0.6,2-0.2,3.1
	c0.3,1,1,1.8,2,2.3c0.6,0.3,1.3,0.5,1.9,0.5c0.3,0,0.6,0,1-0.1c1-0.3,1.8-0.9,2.3-1.7C321.8,14.3,322,13.3,321.8,12.3"/>
<path fill="#2C2473" d="M329,15L329,15L329,15L329,15z M332,8.9c-0.8-0.8-1.8-1.2-2.9-1.2h0c-1.2,0-2.2,0.5-2.9,1.3
	c-0.7,0.8-1.1,1.8-1,2.9c0.1,1,0.6,2,1.3,2.7c0.8,0.7,1.7,1,2.6,1l0.1,0c2,0,3.7-1.7,3.9-3.8C333.1,10.7,332.7,9.6,332,8.9"/>
<path fill="#2C2473" d="M344,14c0.3-1,0.2-2.2-0.3-3.1c-0.6-1-1.5-1.7-2.6-1.9C340,8.8,338.9,9,338,9.6c-0.9,0.6-1.5,1.5-1.7,2.6
	c-0.2,1,0.1,2.1,0.6,2.9c0.6,0.9,1.4,1.5,2.3,1.7c0.3,0.1,0.6,0.1,0.9,0.1c0.7,0,1.4-0.2,1.9-0.5C343.1,15.8,343.7,15,344,14"/>
<path fill="#2C2473" d="M354.1,18.9c0.6-0.9,0.8-2,0.5-3c-0.3-1-1-1.9-2-2.5c-1-0.5-2.2-0.6-3.2-0.3c-1,0.3-1.8,1.1-2.3,2.1
	c-0.4,0.9-0.5,2-0.1,3c0.4,1,1,1.8,1.8,2.2c0.6,0.3,1.1,0.4,1.8,0.4c0.4,0,0.7-0.1,1.1-0.2C352.7,20.4,353.6,19.8,354.1,18.9"/>
<path fill="#2C2473" d="M359.9,26.7 M359.9,27.3L359.9,27.3L359.9,27.3c1,0,2-0.4,2.8-1.1c0.8-0.7,1.2-1.7,1.2-2.8
	c0-1-0.5-2.1-1.3-2.9c-0.8-0.7-1.8-1.1-2.8-1.1c-0.1,0-0.2,0-0.2,0c-1.1,0.1-2,0.6-2.7,1.5c-0.6,0.8-0.9,1.8-0.9,2.8
	c0.1,1,0.5,2,1.2,2.6C357.9,26.9,358.9,27.3,359.9,27.3"/>
<path fill="#2C2473" d="M363.9,34.1c0.3,0.4,0.6,0.8,1.1,1.1c0.4,0.3,0.9,0.5,1.3,0.6c0.3,0.1,0.6,0.1,1,0.1c0.7,0,1.4-0.2,2-0.5
	c1-0.5,1.6-1.4,1.9-2.4c0.1-0.5,0.1-1.1,0.1-1.6c-0.1-0.5-0.3-1.1-0.6-1.5c-0.3-0.5-0.7-0.9-1.2-1.2c-0.5-0.3-0.9-0.5-1.5-0.6
	c-1-0.2-2.1,0.1-3,0.7C363.2,30.1,362.8,32.4,363.9,34.1"/>
<path fill="#2C2473" d="M368.5,40.5c-0.4,0.9-0.5,1.9-0.2,2.9c0.3,0.9,1,1.7,1.9,2.2c0.6,0.3,1.3,0.5,2,0.5c0.3,0,0.7,0,1-0.1
	c1-0.3,1.9-0.9,2.4-1.9c0.2-0.5,0.4-1,0.4-1.5c0-0.5,0-1.1-0.2-1.7c-0.3-1.1-1.1-1.9-2.1-2.4c-1-0.4-2.1-0.5-3.1,0
	C369.7,38.8,369,39.5,368.5,40.5"/>
<path fill="#2C2473" d="M374.5,56.5 M376.8,49.9c-0.8-0.7-1.9-1-2.9-0.8c-1,0.2-1.9,0.7-2.6,1.5c-0.3,0.4-0.6,0.8-0.7,1.3
	c-0.2,0.5-0.2,1-0.2,1.5c0.1,1,0.5,1.9,1.3,2.6c0.8,0.7,1.8,1.1,2.8,1.1h0c1.1,0,2.1-0.4,2.8-1.2c0.7-0.8,1.1-1.9,1-3
	c0-0.6-0.2-1.1-0.4-1.6C377.6,50.7,377.2,50.3,376.8,49.9"/>
<path fill="#2C2473" d="M141.5,96.1c-2.2,0-4,1.8-4,4s1.8,4,4,4c2.2,0,4-1.8,4-4S143.7,96.1,141.5,96.1"/>
<path fill="#2C2473" d="M141.5,85.2c-2.2,0-4,1.8-4,4s1.8,4,4,4c2.2,0,4-1.8,4-4S143.7,85.2,141.5,85.2"/>
<path fill="#2C2473" d="M141.5,74.3c-2.2,0-4,1.8-4,4c0,2.2,1.8,4,4,4c2.2,0,4-1.8,4-4C145.5,76.1,143.7,74.3,141.5,74.3"/>
<path fill="#2C2473" d="M141.5,63.4c-2.2,0-4,1.8-4,4c0,2.2,1.8,4,4,4c2.2,0,4-1.8,4-4C145.5,65.1,143.7,63.4,141.5,63.4"/>
<path fill="#2C2473" d="M141.5,52.4c-2.2,0-4,1.8-4,4c0,2.2,1.8,4,4,4c2.2,0,4-1.8,4-4C145.5,54.2,143.7,52.4,141.5,52.4"/>
<path fill="#2C2473" d="M141.5,41.5c-2.2,0-4,1.8-4,4c0,2.2,1.8,4,4,4c2.2,0,4-1.8,4-4C145.5,43.3,143.7,41.5,141.5,41.5"/>
<path fill="#2C2473" d="M141.5,30.6c-2.2,0-4,1.8-4,4c0,2.2,1.8,4,4,4c2.2,0,4-1.8,4-4C145.5,32.3,143.7,30.6,141.5,30.6"/>
<path fill="#2C2473" d="M141.5,19.6c-2.2,0-4,1.8-4,4c0,2.2,1.8,4,4,4c2.2,0,4-1.8,4-4C145.5,21.4,143.7,19.6,141.5,19.6"/>
<path fill="#2C2473" d="M152.8,8.7c-2.2,0-4,1.8-4,4c0,2.2,1.8,4,4,4c2.2,0,4-1.8,4-4C156.8,10.5,155,8.7,152.8,8.7"/>
<path fill="#2C2473" d="M164.1,8.7c-2.2,0-4,1.8-4,4c0,2.2,1.8,4,4,4c2.2,0,4-1.8,4-4C168,10.5,166.3,8.7,164.1,8.7"/>
<path fill="#2C2473" d="M174.7,17.1c0.2,0,0.4,0.1,0.6,0.1c1.8,0,3.5-1.3,3.9-3.1c0.3-1,0.1-2.1-0.5-3c-0.6-0.9-1.6-1.6-2.7-1.7
	c-2.3-0.4-4.4,1.2-4.6,3.4C171.2,14.8,172.6,16.7,174.7,17.1"/>
<path fill="#2C2473" d="M183.3,19.1c0.3,0.4,0.8,0.7,1.2,0.8c0.5,0.2,0.9,0.3,1.5,0.3c0.5,0,0.9-0.1,1.4-0.2c1-0.4,1.8-1,2.3-1.9
	c0.5-1,0.6-2,0.3-3.1c-0.3-1-1.2-1.9-2.2-2.3c-0.5-0.2-1.1-0.3-1.6-0.3c-0.5,0-1.1,0.1-1.5,0.3c-1,0.4-1.7,1.2-2.1,2.3
	c-0.3,1-0.3,2,0.1,3C182.7,18.3,183,18.7,183.3,19.1"/>
<path fill="#2C2473" d="M192.6,25.2c0.6,0.6,1.4,1,2.5,1.1c0.1,0,0.2,0,0.3,0c0.9,0,1.8-0.3,2.6-0.8c0.9-0.6,1.5-1.6,1.5-2.7
	c0.1-1.1-0.3-2.2-1.2-3.2c-0.4-0.4-0.9-0.7-1.4-1c-0.4-0.2-0.9-0.3-1.6-0.3h0c-1.1,0-2.1,0.5-2.7,1.4c-0.6,0.8-0.9,1.8-0.9,2.8
	c0,0.5,0.1,1,0.3,1.4C192,24.5,192.3,24.9,192.6,25.2"/>
<path fill="#2C2473" d="M202.7,28.7c-0.9-0.5-2.1-0.6-3.1-0.2c-0.9,0.4-1.6,1-2.2,1.9c-0.5,0.8-0.6,1.7-0.5,2.7
	c0.2,0.9,0.8,1.7,1.5,2.2c0.8,0.5,1.7,0.8,2.6,0.8c0.1,0,0.2,0,0.3,0c1.1-0.1,2.1-0.6,2.7-1.5c0.7-1,0.9-2.2,0.6-3.3
	C204.4,30.3,203.7,29.3,202.7,28.7"/>
<path fill="#2C2473" d="M203.9,41.1c-0.6-0.9-1.6-1.5-2.7-1.6c-1-0.1-2,0.2-2.9,0.7c-0.4,0.3-0.8,0.6-1,0.9
	c-0.3,0.4-0.5,0.8-0.6,1.2c-0.2,0.8-0.1,1.7,0.3,2.7c0.5,0.9,1.2,1.6,2.2,2c0.5,0.2,1,0.3,1.5,0.3c0.6,0,1.1-0.1,1.6-0.4
	c1-0.5,1.7-1.4,2.1-2.7c0.1-0.5,0.2-1.1,0.1-1.8C204.4,42.1,204.2,41.5,203.9,41.1"/>
<path fill="#2C2473" d="M194.7,57.1c0.1,0,0.2,0,0.3,0c0.4,0,0.9-0.1,1.4-0.3c0.6-0.2,1.1-0.6,1.5-1c0.5-0.5,0.8-1,1-1.5
	c0.2-0.5,0.3-1.1,0.3-1.6c0-1.1-0.6-2.1-1.5-2.7c-0.8-0.5-1.6-0.8-2.7-0.8l-0.2,0c-0.5,0-1,0.1-1.4,0.3c-0.3,0.1-0.8,0.4-1.2,0.8
	c-0.2,0.3-0.6,0.7-0.7,1.1c-0.2,0.4-0.3,0.8-0.3,1.4c-0.1,1,0.2,2,0.8,2.8C192.7,56.5,193.6,57.1,194.7,57.1"/>
<path fill="#2C2473" d="M183.9,62.8c0.5,0.2,1,0.3,1.5,0.3h0c0.6,0,1.1-0.1,1.6-0.3c1.1-0.5,1.9-1.3,2.3-2.3c0.4-1,0.3-2.1-0.2-3.1
	c-0.5-0.9-1.3-1.6-2.3-2c-1-0.4-2-0.3-2.8,0c-0.5,0.2-0.9,0.5-1.2,0.8c-0.3,0.3-0.6,0.7-0.8,1.2c-0.4,1-0.5,2-0.2,3
	C182.2,61.5,183,62.4,183.9,62.8"/>
<path fill="#2C2473" d="M178.1,64.3c0.6-0.9,0.8-1.9,0.6-3c-0.5-2-2.4-3.5-4.4-3.2c-0.5,0.1-1,0.2-1.4,0.5c-0.1,0.1-0.2,0.1-0.3,0.2
	c-0.1,0.1-0.4,0.3-0.3,0.7c0-0.2,0-0.3,0-0.3c0,0,0,0,0,0c-0.1,0.1-0.2,0.1-0.2,0.2c-0.7,0.7-1.2,1.7-1.2,2.8c0,1.1,0.4,2,1.3,2.9
	c0.2,0.2,0.4,0.3,0.8,0.5c0.1,0,0.1,0,0.2,0.1l0.1,0.1c0.1,0,0.3,0.1,0.4,0.1c0.4,0.1,0.7,0.1,1.1,0.1c0.2,0,0.4,0,0.6,0
	C176.4,65.8,177.4,65.3,178.1,64.3"/>
<path fill="#2C2473" d="M163.5,58.3c-2.2,0-4,1.8-4,4c0,2.2,1.8,4,4,4c2.2,0,4-1.8,4-4C167.4,60.1,165.7,58.3,163.5,58.3"/>
<path fill="#2C2473" d="M152.2,58.3c-2.2,0-4,1.8-4,4c0,2.2,1.8,4,4,4c2.2,0,4-1.8,4-4C156.2,60.1,154.4,58.3,152.2,58.3"/>
<polygon fill="#2C2473" points="144.3,9.9 143.1,9 141.5,8.7 140.2,9 138.9,9.8 137.9,11.1 137.6,12.7 137.8,14.1 138.6,15.4 
	140,16.3 141.5,16.6 143.1,16.3 144.3,15.5 145.2,14.2 145.5,12.7 145.2,11.3 "/>
<path fill="#2C2473" d="M244.9,8.8c-2.2,0-4,1.8-4,4c0,2.2,1.8,4,4,4c2.2,0,4-1.8,4-4C248.8,10.6,247.1,8.8,244.9,8.8"/>
<path fill="#2C2473" d="M244.9,19.7c-2.2,0-4,1.8-4,4c0,2.2,1.8,4,4,4c2.2,0,4-1.8,4-4C248.8,21.5,247.1,19.7,244.9,19.7"/>
<path fill="#2C2473" d="M244.9,30.6c-2.2,0-4,1.8-4,4s1.8,4,4,4c2.2,0,4-1.8,4-4S247.1,30.6,244.9,30.6"/>
<path fill="#2C2473" d="M244.9,41.4c-2.2,0-4,1.8-4,4c0,2.2,1.8,4,4,4c2.2,0,4-1.8,4-4C248.8,43.2,247.1,41.4,244.9,41.4"/>
<path fill="#2C2473" d="M244.9,52.3c-2.2,0-4,1.8-4,4c0,2.2,1.8,4,4,4c2.2,0,4-1.8,4-4C248.8,54.1,247.1,52.3,244.9,52.3"/>
<path fill="#2C2473" d="M244.9,63.2c-2.2,0-4,1.8-4,4c0,2.2,1.8,4,4,4c2.2,0,4-1.8,4-4C248.8,64.9,247.1,63.2,244.9,63.2"/>
<path fill="#2C2473" d="M244.9,74c-2.2,0-4,1.8-4,4c0,2.2,1.8,4,4,4c2.2,0,4-1.8,4-4C248.8,75.8,247.1,74,244.9,74"/>
<path fill="#2C2473" d="M244.9,84.9c-2.2,0-4,1.8-4,4c0,2.2,1.8,4,4,4c2.2,0,4-1.8,4-4C248.8,86.7,247.1,84.9,244.9,84.9"/>
<path fill="#2C2473" d="M244.9,95.8c-2.2,0-4,1.8-4,4c0,2.2,1.8,4,4,4c2.2,0,4-1.8,4-4C248.8,97.6,247.1,95.8,244.9,95.8"/>
<path fill="#2C2473" d="M470.9,8.6c-2.2,0-4,1.8-4,4c0,2.2,1.8,4,4,4c2.2,0,4-1.8,4-4C474.9,10.3,473.1,8.6,470.9,8.6"/>
<path fill="#2C2473" d="M470.9,19.7c-2.2,0-4,1.8-4,4s1.8,4,4,4c2.2,0,4-1.8,4-4S473.1,19.7,470.9,19.7"/>
<path fill="#2C2473" d="M470.9,30.8c-2.2,0-4,1.8-4,4c0,2.2,1.8,4,4,4c2.2,0,4-1.8,4-4C474.9,32.6,473.1,30.8,470.9,30.8"/>
<path fill="#2C2473" d="M470.9,42c-2.2,0-4,1.8-4,4c0,2.2,1.8,4,4,4c2.2,0,4-1.8,4-4C474.9,43.7,473.1,42,470.9,42"/>
<path fill="#2C2473" d="M470.9,53.1c-2.2,0-4,1.8-4,4c0,2.2,1.8,4,4,4c2.2,0,4-1.8,4-4C474.9,54.9,473.1,53.1,470.9,53.1"/>
<path fill="#2C2473" d="M470.9,64.3c-2.2,0-4,1.8-4,4c0,1.1,0.4,2,1.2,2.8c0.7,0.7,1.7,1.2,2.8,1.2l0-0.6v0.6c2.2,0,4-1.8,4-4
	C474.9,66,473.1,64.3,470.9,64.3"/>
<path fill="#2C2473" d="M473.6,77.8c-0.1-0.3-0.2-0.5-0.4-0.7c-0.6-0.9-1.5-1.5-2.6-1.7c-1-0.2-2.1,0.1-2.9,0.6
	c-0.2,0.1-0.4,0.3-0.5,0.4c-0.2,0.2-0.4,0.3-0.5,0.5c-0.3,0.4-0.5,0.8-0.7,1.3c-0.1,0.5-0.1,1-0.1,1.4c0,0.5,0.2,0.9,0.4,1.4
	c0.5,0.9,1.3,1.6,2.2,2c0.4,0.2,0.9,0.3,1.4,0.3c0.6,0,1.2-0.1,1.7-0.4c0.5-0.2,0.9-0.6,1.3-1c0.4-0.5,0.6-1.1,0.8-1.6
	c0.1-0.6,0.2-1.1,0.1-1.7C473.7,78.3,473.7,78,473.6,77.8"/>
<path fill="#2C2473" d="M467.1,85.9c-0.9-0.5-2-0.7-2.9-0.5c-0.5,0.1-0.9,0.3-1.3,0.5c-0.4,0.2-0.8,0.6-1.1,0.9
	c-0.3,0.4-0.5,0.8-0.6,1.3c-0.1,0.4-0.2,0.9-0.1,1.4c0.1,1,0.6,2,1.3,2.7c0.7,0.7,1.6,1,2.5,1c0.1,0,0.2,0,0.4,0
	c0.6-0.1,1.1-0.2,1.6-0.5c0.5-0.3,0.9-0.7,1.2-1.1c0.4-0.5,0.6-1,0.8-1.5c0.1-0.5,0.1-1.1,0-1.6C468.7,87.3,468.1,86.4,467.1,85.9"
	/>
<path fill="#2C2473" d="M456.7,100.2L456.7,100.2L456.7,100.2L456.7,100.2z M457.5,92.9c-0.9-0.2-1.8,0-2.7,0.5
	c-0.4,0.3-0.8,0.6-1,1c-0.1,0.2-0.2,0.4-0.3,0.6c-0.1,0.2-0.2,0.4-0.3,0.7c-0.3,1-0.2,2,0.2,3c0.5,1,1.3,1.7,2.4,2
	c0.3,0.1,0.5,0.1,0.8,0.1l0.1,0c0.2,0,0.4,0,0.7-0.1c0.5-0.1,1.1-0.3,1.6-0.6c1-0.6,1.7-1.5,1.9-2.7c0.2-1.1-0.1-2.1-0.8-3
	C459.4,93.6,458.5,93.1,457.5,92.9"/>
<path fill="#2C2473" d="M448.6,97.4c-0.4-0.3-0.9-0.5-1.3-0.5c-0.5-0.1-0.9-0.1-1.4,0c-0.9,0.1-1.8,0.7-2.4,1.5
	c-0.6,0.8-0.9,1.8-0.9,2.8c0.1,1.1,0.6,2.1,1.5,2.7c0.7,0.5,1.5,0.7,2.4,0.7c0.2,0,0.5,0,0.7-0.1c0.5-0.1,1.1-0.3,1.6-0.7
	c0.5-0.3,0.8-0.7,1.1-1.2c0.6-0.9,0.7-2,0.4-3C450.1,98.8,449.4,98,448.6,97.4"/>
<path fill="#2C2473" d="M436.2,96.9c-0.5,0-0.9-0.1-1.4,0c-0.5,0.1-0.9,0.3-1.3,0.5c-0.9,0.6-1.5,1.4-1.8,2.4c-0.3,1-0.2,2.1,0.4,3
	c0.3,0.4,0.7,0.8,1.1,1.2c0.6,0.4,1.1,0.6,1.6,0.7c0.2,0,0.5,0.1,0.7,0.1c0.9,0,1.8-0.3,2.4-0.8c0.9-0.6,1.4-1.6,1.5-2.7
	c0.1-1-0.2-2-0.8-2.8C437.9,97.5,437.1,97,436.2,96.9"/>
<path fill="#2C2473" d="M425.3,100.2L425.3,100.2L425.3,100.2L425.3,100.2z M428.6,95c-0.1-0.2-0.2-0.4-0.3-0.6
	c-0.3-0.4-0.6-0.8-1.1-1c-0.9-0.5-1.8-0.6-2.7-0.5c-1,0.2-1.9,0.7-2.6,1.5c-0.7,0.9-1,1.9-0.8,3c0.2,1.2,0.9,2.1,1.9,2.7
	c0.5,0.3,1,0.5,1.6,0.6c0.2,0,0.4,0.1,0.7,0.1l0.2,0c0.3,0,0.5-0.1,0.8-0.1c1.1-0.3,1.9-1,2.4-2c0.4-0.9,0.5-2,0.2-3
	C428.8,95.4,428.7,95.2,428.6,95"/>
<path fill="#2C2473" d="M420.2,86.8c-0.3-0.4-0.7-0.7-1.1-0.9c-0.4-0.3-0.8-0.4-1.3-0.5c-1-0.2-2.1,0-2.9,0.5
	c-0.9,0.5-1.6,1.4-1.8,2.5c-0.1,0.5-0.1,1.1,0,1.7c0.1,0.5,0.4,1,0.7,1.5c0.3,0.5,0.8,0.9,1.2,1.1c0.4,0.3,1,0.4,1.6,0.5
	c0.1,0,0.2,0,0.4,0c0.9,0,1.8-0.4,2.5-1c0.7-0.7,1.2-1.6,1.3-2.7c0.1-0.5,0-1-0.1-1.4C420.7,87.7,420.5,87.2,420.2,86.8"/>
<path fill="#2C2473" d="M415.7,81c0.2-0.4,0.4-0.9,0.4-1.4c0-0.4,0.1-0.9-0.1-1.4c-0.1-0.5-0.3-0.9-0.7-1.3
	c-0.2-0.2-0.3-0.4-0.5-0.5c-0.2-0.2-0.4-0.3-0.6-0.4c-0.8-0.5-1.9-0.8-2.9-0.6c-1.1,0.2-2,0.8-2.6,1.7c-0.1,0.2-0.3,0.5-0.4,0.7
	c-0.1,0.2-0.1,0.5-0.2,0.8c-0.1,0.6,0,1.1,0.1,1.7c0.1,0.5,0.3,1.1,0.8,1.6c0.4,0.4,0.8,0.8,1.3,1c0.5,0.3,1.1,0.4,1.7,0.4
	c0.5,0,0.9-0.1,1.4-0.3C414.4,82.6,415.2,81.9,415.7,81"/>
<path fill="#2C2473" d="M411.1,72.2l0-0.6L411.1,72.2c1.1,0,2-0.4,2.8-1.2c0.7-0.7,1.2-1.7,1.2-2.8c0-2.2-1.8-4-4-4
	c-2.2,0-4,1.8-4,4C407.2,70.4,408.9,72.2,411.1,72.2"/>
<path fill="#2C2473" d="M411.1,61c2.2,0,4-1.8,4-4c0-2.2-1.8-4-4-4c-2.2,0-4,1.8-4,4C407.2,59.3,408.9,61,411.1,61"/>
<path fill="#2C2473" d="M411.1,49.9c2.2,0,4-1.8,4-4c0-2.2-1.8-4-4-4c-2.2,0-4,1.8-4,4C407.2,48.1,408.9,49.9,411.1,49.9"/>
<path fill="#2C2473" d="M411.1,38.7c2.2,0,4-1.8,4-4c0-2.2-1.8-4-4-4c-2.2,0-4,1.8-4,4C407.2,37,408.9,38.7,411.1,38.7"/>
<path fill="#2C2473" d="M411.1,27.6c2.2,0,4-1.8,4-4c0-2.2-1.8-4-4-4c-2.2,0-4,1.8-4,4C407.2,25.8,408.9,27.6,411.1,27.6"/>
<path fill="#2C2473" d="M411.1,16.5c2.2,0,4-1.8,4-4c0-2.2-1.8-4-4-4c-2.2,0-4,1.8-4,4C407.2,14.7,408.9,16.5,411.1,16.5"/>
<path fill="#2C2473" d="M559.8,27.2c0.2,0.4,0.5,0.7,1,1c0.4,0.3,0.8,0.5,1.3,0.6c0.4,0.1,0.7,0.1,1.1,0.1c0.7,0,1.3-0.1,1.9-0.4
	c1-0.5,1.7-1.3,2-2.4c0.1-0.5,0.2-1,0.1-1.6c-0.1-0.5-0.3-1-0.6-1.6c-0.6-1-1.6-1.7-2.7-1.9c-1.1-0.2-2.1,0.1-3,0.8
	c-0.8,0.6-1.3,1.5-1.5,2.6C559.2,25.4,559.3,26.3,559.8,27.2"/>
<path fill="#2C2473" d="M553.3,20.2c0.4,0.3,0.8,0.5,1.3,0.6c0.3,0.1,0.7,0.1,1,0.1c0.1,0,0.3,0,0.4,0c1-0.1,2-0.6,2.7-1.3
	c0.7-0.8,1.1-1.8,1-2.9c-0.1-0.5-0.2-1.1-0.5-1.6c-0.3-0.5-0.7-0.9-1.1-1.2c-0.9-0.7-2.1-1-3.2-0.8c-1,0.2-2,0.8-2.5,1.8
	c-0.5,0.9-0.7,1.9-0.5,2.9C552,18.7,552.5,19.5,553.3,20.2"/>
<path fill="#2C2473" d="M544.1,15.8c0.2,0.1,0.4,0.2,0.7,0.3c0.3,0.1,0.6,0.1,0.9,0.1c0.2,0,0.4,0,0.5,0c0.5-0.1,0.9-0.2,1.3-0.4
	c0.9-0.5,1.6-1.3,2-2.2c0.4-1,0.4-2.1-0.1-3.1c-0.3-0.5-0.6-0.9-1-1.3c-0.4-0.3-1-0.6-1.5-0.8c-0.3-0.1-0.6-0.1-0.9-0.2
	c-0.3,0-0.6,0-0.9,0c-0.6,0.1-1.1,0.3-1.5,0.5c-0.9,0.5-1.5,1.5-1.7,2.6c-0.1,1,0.1,2,0.6,2.9c0.3,0.4,0.6,0.8,1,1.1
	C543.7,15.6,543.9,15.7,544.1,15.8"/>
<path fill="#2C2473" d="M534.9,14.5L534.9,14.5L534.9,14.5L534.9,14.5z M535,15.1c2-0.1,3.7-1.8,3.8-3.9c0-1.1-0.4-2.1-1.1-2.9
	c-0.7-0.7-1.8-1.1-3-1.1h0c-1.1,0-2.2,0.5-2.9,1.3c-0.7,0.8-1,1.8-0.9,2.9c0.1,1,0.6,2,1.4,2.7c0.7,0.6,1.6,1,2.5,1L535,15.1z"/>
<path fill="#2C2473" d="M522.6,16.6c0.4,0.2,0.9,0.3,1.4,0.3l0.2,0c0.4,0,0.8-0.1,1.2-0.2c0.9-0.3,1.6-1,2.1-1.9
	c0.5-0.9,0.6-2,0.4-3c-0.2-1.1-0.9-1.9-1.9-2.4c-1-0.5-2.2-0.6-3.2-0.2c-0.5,0.2-1,0.5-1.5,0.9c-0.4,0.4-0.7,0.8-0.9,1.3
	c-0.4,1-0.4,2.1,0.1,3.1C520.9,15.5,521.6,16.2,522.6,16.6"/>
<path fill="#2C2473" d="M512.3,21.8c0.7,0.5,1.6,0.8,2.5,0.8c0.1,0,0.2,0,0.3,0c1-0.1,1.9-0.4,2.5-1.1c0.6-0.6,1-1.5,1-2.5
	c0-1.1-0.3-2-0.8-2.8c-0.7-0.9-1.7-1.4-2.7-1.5l-0.2,0c-1.1,0-2.1,0.5-2.9,1.3c-0.8,0.8-1.3,2-1.2,3.1
	C510.8,20.2,511.3,21.2,512.3,21.8"/>
<path fill="#2C2473" d="M508.6,32.1c0.2,0,0.4,0,0.6,0c0.8,0,1.6-0.2,2.3-0.7c0.4-0.3,0.7-0.6,1-0.9c0.3-0.3,0.5-0.7,0.6-1.3
	c0.2-0.9,0.1-1.8-0.3-2.7c-0.5-0.9-1.2-1.6-2.1-2.1c-1-0.4-2.1-0.4-3.1,0.1c-1,0.5-1.8,1.5-2.1,2.6c-0.2,0.5-0.2,1.1-0.1,1.7
	c0.1,0.6,0.3,1.1,0.6,1.5C506.6,31.4,507.5,32,508.6,32.1"/>
<path fill="#2C2473" d="M508.7,42.9c0.3,0.1,0.7,0.1,1,0.1c0.7,0,1.4-0.2,2.1-0.6c1-0.7,1.5-1.7,1.7-2.4c0.3-1,0.2-1.9-0.1-2.7
	c-0.3-0.8-1-1.4-1.9-1.8c-1-0.4-1.9-0.5-2.9-0.3c-1.1,0.2-2,0.9-2.5,1.9c-0.5,1-0.5,2.3,0.1,3.5C506.7,41.8,507.6,42.6,508.7,42.9"
	/>
<path fill="#2C2473" d="M516.7,43.7l-0.2,0c-1,0-2,0.4-2.7,1.1c-0.8,0.7-1.2,1.8-1.2,2.9c0,0.5,0.2,1.1,0.4,1.6
	c0.2,0.5,0.6,0.9,1.1,1.4c0.4,0.4,1,0.7,1.5,0.8c0.4,0.1,0.8,0.2,1.2,0.2c0.1,0,0.3,0,0.4,0c1.1-0.1,2-0.7,2.6-1.6
	c0.6-0.8,0.8-1.9,0.7-2.9c-0.1-0.5-0.2-1-0.4-1.4c-0.2-0.5-0.5-0.8-0.9-1.1c-0.3-0.3-0.8-0.6-1.3-0.7
	C517.5,43.8,517.1,43.7,516.7,43.7"/>
<path fill="#2C2473" d="M526,57.3c0.6,0,1.2-0.1,1.7-0.4c1-0.5,1.7-1.3,2-2.4c0.3-1,0.2-2-0.2-3c-0.4-0.9-1.1-1.6-2-2
	c-0.5-0.2-0.9-0.3-1.4-0.3h0c-0.5,0-0.9,0.1-1.4,0.3c-1,0.4-1.8,1.1-2.2,2c-0.5,1-0.6,2.1-0.2,3.1c0.2,0.5,0.5,1,0.9,1.4
	c0.4,0.4,0.9,0.7,1.4,0.9C525,57.2,525.5,57.3,526,57.3"/>
<path fill="#2C2473" d="M536.3,59.6c0.1,0,0.2,0,0.4,0c0.4,0,0.8-0.1,1.2-0.2c0.4-0.1,0.9-0.4,1.2-0.7c0.8-0.7,1.3-1.6,1.5-2.6
	c0.2-1.1-0.1-2.2-0.8-3c-0.3-0.4-0.8-0.7-1.3-1c-0.5-0.2-1-0.4-1.5-0.4c-0.5,0-1.1,0-1.6,0.2c-0.6,0.2-1,0.5-1.3,0.7
	c-0.8,0.7-1.3,1.6-1.4,2.6c-0.2,1.1,0.1,2.2,0.8,3c0.3,0.4,0.8,0.7,1.2,1C535.3,59.4,535.8,59.6,536.3,59.6"/>
<path fill="#2C2473" d="M547.3,62c0.5,0,1-0.1,1.4-0.3c1-0.4,1.8-1.1,2.2-2c0.5-1,0.6-2.1,0.2-3.1c-0.4-1-1.2-1.9-2.3-2.3
	c-1-0.4-2.3-0.4-3.2,0c-1,0.4-1.7,1.3-2,2.3c-0.3,1-0.2,2,0.2,3c0.4,0.9,1.1,1.6,2,2C546.3,61.9,546.8,62,547.3,62"/>
<path fill="#2C2473" d="M556.7,67.2L556.7,67.2L556.7,67.2L556.7,67.2z M556.8,67.8c1,0,2-0.4,2.8-1.1c0.8-0.7,1.2-1.7,1.2-2.8
	c0-1.1-0.5-2.2-1.4-2.9c-0.8-0.7-1.7-1-2.7-1c-0.1,0-0.3,0-0.4,0c-1.1,0.1-2,0.7-2.7,1.6c-0.6,0.8-0.8,1.8-0.7,2.9
	c0.1,1,0.6,1.9,1.3,2.5c0.7,0.6,1.6,0.9,2.5,0.9L556.8,67.8z"/>
<path fill="#2C2473" d="M564.6,68.6c-1-0.3-2.1-0.1-3.1,0.5c-0.8,0.5-1.4,1.4-1.8,2.4c-0.3,1-0.3,1.9,0.1,2.7c0.3,0.8,1,1.4,1.9,1.8
	c0.7,0.3,1.4,0.5,2.1,0.5c0.2,0,0.5,0,0.8-0.1c1.1-0.2,2-0.9,2.5-1.9c0.5-1,0.5-2.4,0-3.5C566.6,69.8,565.6,69,564.6,68.6"/>
<path fill="#2C2473" d="M567.1,81.1c-0.6-0.9-1.5-1.5-2.6-1.6c-1-0.1-2,0.1-2.9,0.7c-0.9,0.6-1.4,1.3-1.6,2.2
	c-0.1,0.4-0.2,0.9-0.1,1.4c0.1,0.4,0.2,0.9,0.4,1.3c0.5,0.9,1.2,1.6,2.1,2c0.5,0.2,1,0.3,1.5,0.3c0.6,0,1.1-0.1,1.6-0.4
	c0.5-0.2,0.9-0.6,1.3-1c0.3-0.4,0.6-0.9,0.8-1.6C567.9,83.2,567.7,82,567.1,81.1"/>
<path fill="#2C2473" d="M558.4,96.4L558.4,96.4L558.4,96.4L558.4,96.4z M560.9,89.8c-0.8-0.5-1.8-0.8-2.9-0.7
	c-0.5,0-0.9,0.2-1.3,0.3c-0.2,0.1-0.4,0.2-0.6,0.3c-0.2,0.1-0.4,0.3-0.6,0.5c-0.3,0.4-0.6,0.7-0.7,1.2c-0.2,0.4-0.2,0.9-0.3,1.3
	c0,1,0.3,2,0.9,2.8c0.7,0.9,1.7,1.4,2.7,1.4l0.2,0c0.5,0,1-0.1,1.5-0.3c0.6-0.2,1.1-0.6,1.5-1c0.2-0.2,0.4-0.5,0.6-0.7
	c0.2-0.3,0.3-0.5,0.4-0.8c0.2-0.6,0.3-1.1,0.2-1.7C562.4,91.4,561.8,90.4,560.9,89.8"/>
<path fill="#2C2473" d="M550.6,95.1c-0.9-0.4-1.9-0.4-2.8-0.1c-0.9,0.3-1.6,1-2.1,1.9c-0.5,0.9-0.6,2-0.4,3c0.3,1.1,0.9,1.9,1.9,2.4
	c0.6,0.3,1.2,0.4,1.8,0.4h0c0.5,0,1-0.1,1.4-0.3c1.1-0.4,2-1.2,2.4-2.2c0.4-1,0.4-2.1-0.1-3.1C552.4,96.3,551.6,95.6,550.6,95.1"/>
<path fill="#2C2473" d="M538.4,104.1L538.4,104.1L538.4,104.1L538.4,104.1z M540.9,97.8c-0.7-0.6-1.6-1-2.5-1l-0.2,0
	c-0.5,0-1,0.1-1.4,0.3c-0.4,0.2-0.8,0.5-1.2,0.8c-0.7,0.8-1.2,1.7-1.2,2.7c0,1.1,0.4,2.1,1.1,2.9c0.4,0.4,0.8,0.7,1.3,0.9
	c0.5,0.2,1,0.3,1.5,0.3l0.1,0c1.1-0.1,2.2-0.5,2.9-1.4c0.7-0.8,1-1.9,0.9-2.9C542.2,99.4,541.7,98.5,540.9,97.8"/>
<path fill="#2C2473" d="M529.7,96.5c-0.3-0.3-0.7-0.4-1.3-0.6c-0.9-0.3-1.8-0.1-2.8,0.4c-0.9,0.5-1.6,1.3-2,2.2
	c-0.4,1-0.3,2.1,0.2,3.1c0.5,1,1.4,1.7,2.5,2c0.3,0.1,0.7,0.2,1,0.2c0.2,0,0.5,0,0.7-0.1c0.5-0.1,1-0.3,1.5-0.6
	c0.9-0.5,1.5-1.5,1.7-2.6c0.1-1-0.1-2-0.6-2.9C530.4,97.1,530.1,96.8,529.7,96.5"/>
<path fill="#2C2473" d="M520.8,92.8c-0.1-0.2-0.3-0.4-0.4-0.6c-0.2-0.2-0.3-0.3-0.5-0.5c-0.4-0.3-0.8-0.5-1.3-0.6
	c-0.5-0.1-1-0.1-1.4-0.1c-1,0.1-2,0.6-2.7,1.3c-0.7,0.8-1.1,1.8-0.9,2.9c0.1,0.6,0.2,1.1,0.5,1.5c0.3,0.5,0.7,0.9,1.2,1.2
	c0.3,0.2,0.5,0.4,0.8,0.5c0.3,0.1,0.5,0.2,0.8,0.2c0.3,0.1,0.6,0.1,0.9,0.1c0.2,0,0.5,0,0.7-0.1c1-0.2,2-0.9,2.5-1.8
	c0.5-0.9,0.6-1.9,0.5-2.9C521.2,93.7,521.1,93.2,520.8,92.8"/>
<path fill="#2C2473" d="M513.3,84.9c-0.2-0.4-0.6-0.7-1-1c-0.4-0.3-0.8-0.5-1.3-0.6c-1-0.2-2.1-0.1-3,0.3c-1,0.5-1.7,1.3-1.9,2.4
	c-0.1,0.5-0.2,1.1-0.1,1.6c0.1,0.5,0.3,1.1,0.6,1.6c0.6,1,1.6,1.6,2.7,1.8c0.2,0,0.4,0.1,0.6,0.1c0.8,0,1.7-0.3,2.3-0.9
	c0.8-0.6,1.3-1.5,1.5-2.6C514,86.7,513.8,85.7,513.3,84.9"/>
<path fill="#2C2473" d="M182.2,70.1c-1.2-1.7-3.8-2.1-5.5-0.9c-0.9,0.6-1.4,1.5-1.6,2.6c-0.2,1,0.1,2.1,0.7,2.9
	c0.7,1,1.9,1.6,3.2,1.6c0.8,0,1.6-0.3,2.3-0.8C183.1,74.4,183.5,71.9,182.2,70.1"/>
<path fill="#2C2473" d="M189.5,82.2c0.2-1-0.1-2.1-0.7-2.9c-1.2-1.7-3.8-2.1-5.5-0.9c-1.8,1.3-2.2,3.8-0.9,5.5
	c0.7,1,1.9,1.6,3.2,1.6c0.8,0,1.6-0.3,2.3-0.8C188.8,84.1,189.4,83.2,189.5,82.2"/>
<path fill="#2C2473" d="M195.4,88.3c-1.2-1.7-3.8-2.1-5.5-0.9c-0.9,0.6-1.4,1.5-1.6,2.6c-0.2,1,0.1,2.1,0.7,2.9
	c0.7,1,1.9,1.6,3.2,1.6c0.8,0,1.6-0.3,2.3-0.8C196.3,92.6,196.7,90.1,195.4,88.3"/>
<path fill="#2C2473" d="M196.5,96.5c-0.9,0.6-1.4,1.5-1.6,2.6c-0.2,1,0.1,2.1,0.7,2.9c0.7,1,1.9,1.6,3.2,1.6c0.8,0,1.6-0.3,2.3-0.8
	c0.9-0.6,1.4-1.5,1.6-2.6c0.2-1-0.1-2.1-0.7-2.9C200.8,95.7,198.2,95.3,196.5,96.5"/>
<path fill="#2C2473" d="M76.6,75.1c1.8-1.3,2.2-3.8,0.9-5.5c-1.2-1.7-3.8-2.1-5.5-0.9c-0.9,0.6-1.4,1.5-1.6,2.6
	c-0.2,1,0.1,2.1,0.7,2.9c0.7,1,1.9,1.6,3.2,1.6C75.1,75.9,75.9,75.6,76.6,75.1"/>
<path fill="#2C2473" d="M84.1,78.7c-1.2-1.7-3.8-2.1-5.5-0.9c-1.8,1.3-2.2,3.8-0.9,5.5c0.7,1,1.9,1.6,3.2,1.6c0.8,0,1.6-0.3,2.3-0.8
	C85,82.9,85.4,80.5,84.1,78.7"/>
<path fill="#2C2473" d="M91.8,96c-0.9,0.6-1.4,1.5-1.6,2.6c-0.2,1,0.1,2.1,0.7,2.9c0.7,1,1.9,1.6,3.2,1.6c0.8,0,1.6-0.3,2.3-0.8
	c0.9-0.6,1.4-1.5,1.6-2.6c0.2-1-0.1-2.1-0.7-2.9C96.1,95.2,93.5,94.8,91.8,96"/>
</svg>
